<?xml version="1.0" encoding="UTF-8" standalone="no"?><svg xmlns="http://www.w3.org/2000/svg" xmlns:svg="http://www.w3.org/2000/svg" baseProfile="tiny" height="2.15in" version="1.2" viewBox="0 0 252 154.8" width="3.5in" x="0in" y="0in">
  <defs>
        <marker fill="red" id="knob" markerHeight="3" markerUnits="strokeWidth" markerWidth="4" orient="auto" refX="0" refY="5" viewBox="0 0 10 10">
                  <path d="M 0 0 L 10 5 L 0 10 z"/>
        </marker>
      </defs>
    
<g><rect fill="darkgreen" fill-opacity="0.75" height="70" width="120" x="55" y="35"/><path d="M 60, 30 L 60 40 L 73 40 L 73 47" fill="none" marker-end="url(#knob)" marker-start="url(#knob)" stroke="red" stroke-width="1"/><g><g><rect fill="red" height="12" width="17" x="65" y="50"/><text fill="blue" font-family="Verdana" font-size="6" x="65" y="59">gpio</text><path d="M 81, 56L 89 56" fill="red" marker-end="url(#knob)" stroke="red" stroke-width="1"/></g><g><rect fill="red" height="12" width="17" x="92" y="50"/><text fill="blue" font-family="Verdana" font-size="6" x="92" y="59">bean</text><path d="M 108, 56L 116 56" fill="red" marker-end="url(#knob)" stroke="red" stroke-width="1"/></g><g><rect fill="red" height="12" width="17" x="119" y="50"/><text fill="blue" font-family="Verdana" font-size="6" x="119" y="59">bean</text><path d="M 135, 56L 143 56" fill="red" marker-end="url(#knob)" stroke="red" stroke-width="1"/></g><g><rect fill="red" height="12" width="17" x="146" y="50"/><text fill="blue" font-family="Verdana" font-size="6" x="146" y="59">bean</text></g></g><path d="M 154, 62 L 154 69 L 73 69 L 73 75" fill="none" marker-end="url(#knob)" stroke="red" stroke-width="1"/><g><g><rect fill="red" height="12" width="17" x="65" y="77"/><text fill="blue" font-family="Verdana" font-size="6" x="65" y="86">bean</text><path d="M 81, 83L 89 83" fill="red" marker-end="url(#knob)" stroke="red" stroke-width="1"/></g><g><rect fill="red" height="12" width="17" x="92" y="77"/><text fill="blue" font-family="Verdana" font-size="6" x="92" y="86">bean</text><path d="M 108, 83L 116 83" fill="red" marker-end="url(#knob)" stroke="red" stroke-width="1"/></g><g><rect fill="red" height="12" width="17" x="119" y="77"/><text fill="blue" font-family="Verdana" font-size="6" x="119" y="86">bean</text><path d="M 135, 83L 143 83" fill="red" marker-end="url(#knob)" stroke="red" stroke-width="1"/></g><g><rect fill="red" height="12" width="17" x="146" y="77"/><text fill="blue" font-family="Verdana" font-size="6" x="146" y="86">mqtt</text></g></g><path d="M 162, 83 L 180 83" fill="none" marker-end="url(#knob)" stroke="red" stroke-width="1"/></g></svg>
